<svg xmlns="http://www.w3.org/2000/svg" viewBox="0 0 100 100">
<defs><linearGradient id="body" x1="0" y1="0" x2="1" y2="1"><stop stop-color="#fffdf4"/><stop offset="1" stop-color="#d4c6ab"/></linearGradient></defs>
<ellipse cx="50" cy="88" rx="30" ry="5" fill="#101923" opacity=".18"/>
<g fill="url(#body)" stroke="#655e53" stroke-width="2.4" stroke-linejoin="round" stroke-linecap="round">
<path d="M31 75c1-13 7-22 21-31l-9-4-10 10-13-5 7-15 14-10 2-10 10 8c22 2 29 17 27 36l-4 21z"/><path d="M53 25c12 7 14 20 7 34M31 36l8-7" fill="none"/><circle cx="45" cy="30" r="2.7" fill="#655e53" stroke="none"/><path d="M23 42l10 2" fill="none"/>
<path d="M30 75h40l5 8H25z"/><path d="M26 83h48l4 7H22z"/>
</g>
<path d="M31 80h38M28 87h44" fill="none" stroke="#fffdf6" stroke-opacity=".5" stroke-width="1.5" stroke-linecap="round"/>
</svg>